<svg width="50" height="44" viewBox="0 0 50 44" fill="none" xmlns="http://www.w3.org/2000/svg">
<path d="M8.43035 0C7.04247 0 5.84247 6.38696e-07 4.90005 0.0910353C3.96974 0.176001 2.82429 0.37931 1.89096 1.14704C1.30088 1.63558 0.82554 2.24831 0.498725 2.94165C0.17191 3.635 0.00165038 4.39193 5.17544e-05 5.15863C-0.00600885 6.34208 0.521264 7.36167 1.03035 8.16884C1.53944 8.98815 2.27581 9.95919 3.13641 11.0941L11.0031 21.4781C11.7667 22.4855 11.9576 22.7526 12.0909 23.0257C12.2283 23.3089 12.3283 23.6093 12.3909 23.9269C12.4516 24.2304 12.4606 24.5702 12.4606 25.8508V34.8632C12.4606 35.5854 12.4576 36.3623 12.6728 37.1027C12.8606 37.746 13.1728 38.3468 13.5909 38.8778C14.0758 39.4847 14.7122 39.9278 15.294 40.3253L15.4394 40.4254L18.4394 42.498C18.9425 42.847 19.4425 43.1959 19.8788 43.4387C20.3152 43.6814 21.0546 44.0516 21.9697 43.994C23.0697 43.9272 24.0606 43.3628 24.697 42.4919C25.2182 41.7758 25.3334 40.9777 25.3758 40.4801C25.4182 39.9763 25.4182 39.3573 25.4182 38.7261V25.8508C25.4182 24.5702 25.4303 24.2304 25.4879 23.9269C25.5485 23.6093 25.6495 23.3089 25.7909 23.0257C25.9212 22.7526 26.1121 22.4855 26.8758 21.4781L34.7424 11.0941C35.603 9.95919 36.3394 8.98815 36.8515 8.16884C37.3576 7.36167 37.8818 6.34208 37.8788 5.15863C37.8772 4.39193 37.7069 3.635 37.3801 2.94165C37.0533 2.24831 36.578 1.63558 35.9879 1.14704C35.0546 0.37931 33.9091 0.176 32.9788 0.0879995C32.0364 -5.87826e-07 30.8364 0 29.4485 0H8.43035ZM4.54853 5.12525C4.55834 4.974 4.61926 4.8306 4.72126 4.71863C4.79399 4.69739 4.97277 4.6549 5.32732 4.62152C6.03035 4.55476 7.01217 4.55173 8.53944 4.55173H29.3394C30.8667 4.55173 31.8485 4.55173 32.5515 4.62152C32.9061 4.65187 33.0849 4.69739 33.1576 4.71863C33.2485 4.81877 33.3182 4.96139 33.3303 5.12525C33.2442 5.34699 33.1323 5.55782 32.997 5.75339C32.6091 6.37546 31.997 7.18567 31.0576 8.42677L29.9697 9.86208H7.90914L6.81823 8.42677C5.87883 7.18263 5.26671 6.37546 4.87883 5.75339C4.74352 5.55782 4.63467 5.34699 4.54853 5.12525ZM38.6364 15.1724C38.0336 15.1724 37.4555 15.4122 37.0293 15.839C36.6031 16.2658 36.3637 16.8447 36.3637 17.4483C36.3637 18.0519 36.6031 18.6308 37.0293 19.0576C37.4555 19.4844 38.0336 19.7242 38.6364 19.7242H47.7273C48.33 19.7242 48.9081 19.4844 49.3343 19.0576C49.7606 18.6308 50 18.0519 50 17.4483C50 16.8447 49.7606 16.2658 49.3343 15.839C48.9081 15.4122 48.33 15.1724 47.7273 15.1724H38.6364ZM34.0909 22.7587C33.4882 22.7587 32.9101 22.9984 32.4839 23.4252C32.0576 23.852 31.8182 24.4309 31.8182 25.0345C31.8182 25.6381 32.0576 26.217 32.4839 26.6438C32.9101 27.0706 33.4882 27.3104 34.0909 27.3104H47.7273C48.33 27.3104 48.9081 27.0706 49.3343 26.6438C49.7606 26.217 50 25.6381 50 25.0345C50 24.4309 49.7606 23.852 49.3343 23.4252C48.9081 22.9984 48.33 22.7587 47.7273 22.7587H34.0909ZM32.5758 30.3449C31.973 30.3449 31.3949 30.5847 30.9687 31.0115C30.5425 31.4383 30.3031 32.0171 30.3031 32.6207C30.3031 33.2243 30.5425 33.8032 30.9687 34.23C31.3949 34.6568 31.973 34.8966 32.5758 34.8966H47.7273C48.33 34.8966 48.9081 34.6568 49.3343 34.23C49.7606 33.8032 50 33.2243 50 32.6207C50 32.0171 49.7606 31.4383 49.3343 31.0115C48.9081 30.5847 48.33 30.3449 47.7273 30.3449H32.5758ZM32.5758 37.9311C31.973 37.9311 31.3949 38.1709 30.9687 38.5977C30.5425 39.0245 30.3031 39.6034 30.3031 40.207C30.3031 40.8106 30.5425 41.3894 30.9687 41.8162C31.3949 42.243 31.973 42.4828 32.5758 42.4828H40.1515C40.7543 42.4828 41.3324 42.243 41.7586 41.8162C42.1848 41.3894 42.4243 40.8106 42.4243 40.207C42.4243 39.6034 42.1848 39.0245 41.7586 38.5977C41.3324 38.1709 40.7543 37.9311 40.1515 37.9311H32.5758Z" fill="#42C2FF"/>
</svg>
